<?xml version="1.0" encoding="UTF-8"?>
<!DOCTYPE svg PUBLIC "-//W3C//DTD SVG 1.1//EN" "http://www.w3.org/Graphics/SVG/1.1/DTD/svg11.dtd">
<svg version="1.1" xmlns="http://www.w3.org/2000/svg" xmlns:xlink="http://www.w3.org/1999/xlink" x="0" y="0" width="49.6" height="49.6" viewBox="0, 0, 496, 496">
  <g id="レイヤー_1" transform="translate(0, -8)">
    <path d="M248,8 C111,8 0,119 0,256 C0,393 111,504 248,504 C385,504 496,393 496,256 C496,119 385,8 248,8 z M248,104 C296.6,104 336,143.4 336,192 C336,240.6 296.6,280 248,280 C199.4,280 160,240.6 160,192 C160,143.4 199.4,104 248,104 z M248,448 C189.3,448 136.7,421.4 101.5,379.8 C120.3,344.4 157.1,320 200,320 C202.4,320 204.8,320.4 207.1,321.1 C220.1,325.3 233.7,328 248,328 C262.3,328 276,325.3 288.9,321.1 C291.2,320.4 293.6,320 296,320 C338.9,320 375.7,344.4 394.5,379.8 C359.3,421.4 306.7,448 248,448 z" fill="#000000"/>
  </g>
</svg>
